# xmcd CD database file
#
# Track frame offsets:
#	150
#	46632
#	94227
#	137199
#	185388
#	236022
#	281572
#
# Disc length: 4369 seconds
#
# Revision: 0
# Processed by: cddbd v1.5.2PL0 Copyright (c) Steve Scherf et al.
# Submitted via: CDex 1.70beta2
#
DISCID=5c110f07
DTITLE=Saraswati - Sea Changes - Chakra Travel
DYEAR=2006
DGENRE=New Age
TTITLE0=Earth
TTITLE1=Joy
TTITLE2=Trust
TTITLE3=Love
TTITLE4=Truth
TTITLE5=Wisdom
TTITLE6=Divine
EXTD=YEAR: 2006
EXTT0=
EXTT1=
EXTT2=
EXTT3=
EXTT4=
EXTT5=
EXTT6=
PLAYORDER=
